<?xml version='1.0' encoding='utf-8'?>
<svg version="1.1" fill="#BEBEBE" xmlns="http://www.w3.org/2000/svg" viewBox="0 0 512 512" xmlns:xlink="http://www.w3.org/1999/xlink" enable-background="new 0 0 512 512" width="100%" height="100%">
  <g>
    <g>
      <path d="m241.8,189.1c-36.9,0-66.9,30-66.9,66.9 0,36.9 30,66.9 66.9,66.9 36.9,0 66.9-30 66.9-66.9-5.68434e-14-36.9-30-66.9-66.9-66.9zm0,93c-14.4,0-26.1-11.7-26.1-26.1 0-14.4 11.7-26.1 26.1-26.1 14.4,0 26.1,11.7 26.1,26.1-5.68434e-14,14.4-11.7,26.1-26.1,26.1z"/>
      <path d="M484.3,433.9c-17.2-3.2-32.7,1.6-46.3,5.8c-4.5,1.4-65.2,6.2-65.2,6.2c60.3-41.7,99.8-111.3,99.8-189.9    c0-127.3-103.5-230.8-230.8-230.8C114.5,25.2,11,128.7,11,256s103.5,230.8,230.8,230.8c8.3,0,149.5,0,151.2,0    c12.7,0,72.3-11.2,83.2-11.3c11.3-0.1,22.4-6.7,24.5-17.8C502.7,446.6,495.4,435.9,484.3,433.9z M51.8,256    c0-104.7,85.2-190,190-190c104.8,0,190,85.2,190,190s-85.2,190-190,190C137,446,51.8,360.7,51.8,256z"/>
      <circle cx="241.8" cy="381.5" r="21.4"/>
      <circle cx="367.3" cy="256" r="21.4"/>
      <circle cx="116.3" cy="256" r="21.4"/>
      <circle cx="241.8" cy="130.5" r="21.4"/>
    </g>
  </g>
</svg>
