<svg width="43" height="32" viewBox="0 0 43 32" fill="none" xmlns="http://www.w3.org/2000/svg">
<path d="M27.4812 14.0624L18.1968 8.98495C17.663 8.69301 17.032 8.7039 16.5087 9.01379C15.9851 9.324 15.6729 9.87199 15.6729 10.4802V20.5479C15.6729 21.1533 15.9832 21.7003 16.5033 22.0108C16.7748 22.173 17.0759 22.2544 17.3776 22.2544C17.654 22.2544 17.931 22.1861 18.1859 22.049L27.4706 17.059C28.0218 16.7626 28.3658 16.1899 28.3684 15.5641C28.3706 14.9382 28.0307 14.363 27.4812 14.0624ZM18.1356 19.2815V11.757L25.0746 15.5519L18.1356 19.2815Z" fill="#FFC900"/>
<path d="M41.716 7.54299L41.714 7.52376C41.6785 7.18567 41.3242 4.17843 39.8615 2.64885C38.1708 0.849762 36.2541 0.631205 35.3323 0.526413C35.256 0.517761 35.1861 0.509749 35.1236 0.501417L35.0502 0.493726C29.4944 0.0899406 21.1039 0.0348206 21.0199 0.0345002L21.0125 0.0341797L21.0052 0.0345002C20.9211 0.0348206 12.5307 0.0899406 6.92487 0.493726L6.85081 0.501417C6.79117 0.509429 6.72545 0.516799 6.65395 0.525132C5.74273 0.630244 3.84655 0.849121 2.15108 2.71326C0.757959 4.2265 0.355253 7.16933 0.313893 7.50005L0.309083 7.54299C0.296579 7.68367 0 11.0328 0 14.3952V17.5383C0 20.9006 0.296579 24.2498 0.309083 24.3908L0.311328 24.4119C0.346917 24.7446 0.700888 27.6967 2.15685 29.2269C3.74651 30.9658 5.75651 31.1958 6.83766 31.3195C7.00856 31.3391 7.15573 31.3558 7.25608 31.3734L7.35323 31.3868C10.5611 31.6919 20.6188 31.8422 21.0452 31.8483L21.0581 31.8486L21.0709 31.8483C21.1549 31.848 29.545 31.7929 35.1008 31.3891L35.1742 31.3814C35.2445 31.3721 35.3233 31.3638 35.4099 31.3548C36.316 31.2587 38.2019 31.059 39.874 29.2202C41.2671 27.7066 41.6701 24.7638 41.7112 24.4334L41.716 24.3905C41.7285 24.2495 42.0254 20.9006 42.0254 17.5383V14.3952C42.0251 11.0328 41.7285 7.68399 41.716 7.54299ZM39.5623 17.5383C39.5623 20.6503 39.2904 23.8553 39.2648 24.1495C39.1603 24.9599 38.7354 26.8218 38.0567 27.5592C37.0101 28.71 35.9351 28.8241 35.1502 28.9071C35.0553 28.917 34.9674 28.9266 34.8879 28.9366C29.5142 29.325 21.4406 29.3846 21.0686 29.3868C20.6515 29.3807 10.741 29.2292 7.63089 28.9404C7.47154 28.9145 7.29937 28.8946 7.11789 28.8741C6.19737 28.7686 4.93732 28.6244 3.96838 27.5592L3.94562 27.5349C3.27872 26.8404 2.86607 25.0993 2.76123 24.1591C2.74167 23.9367 2.46273 20.6939 2.46273 17.5383V14.3952C2.46273 11.2867 2.73398 8.08521 2.76027 7.78494C2.88499 6.83027 3.31784 5.08118 3.96838 4.37423C5.04697 3.18851 6.18423 3.05712 6.93642 2.97028C7.00824 2.96195 7.07525 2.95425 7.13713 2.94624C12.589 2.55592 20.7208 2.49791 21.0125 2.49567C21.3043 2.49759 29.4331 2.55592 34.8366 2.94624C34.903 2.95457 34.9755 2.96291 35.0534 2.97188C35.827 3.06001 36.9964 3.19332 38.0695 4.33738L38.0794 4.34795C38.7463 5.0424 39.159 6.81393 39.2638 7.77308C39.2824 7.98299 39.5623 11.2328 39.5623 14.3952V17.5383Z" fill="#FFC900"/>
</svg>
