<svg width="29" height="22" viewBox="0 0 29 22" fill="none" xmlns="http://www.w3.org/2000/svg">
<path d="M19.013 9.71325L12.6375 6.22678C12.2709 6.02631 11.8376 6.0338 11.4783 6.24658C11.1187 6.45959 10.9043 6.83588 10.9043 7.25353V14.1666C10.9043 14.5823 11.1174 14.9579 11.4745 15.1711C11.661 15.2825 11.8678 15.3384 12.0749 15.3384C12.2647 15.3384 12.455 15.2915 12.63 15.1973L19.0057 11.7709C19.3842 11.5674 19.6204 11.1742 19.6222 10.7444C19.6237 10.3146 19.3903 9.91965 19.013 9.71325ZM12.5954 13.297V8.13021L17.3604 10.736L12.5954 13.297Z" fill="#BEBEBE"/>
<path d="M28.7877 5.23691L28.7863 5.2237C28.7619 4.99154 28.5186 2.92645 27.5142 1.87608C26.3532 0.640632 25.037 0.490547 24.404 0.418586C24.3516 0.412644 24.3036 0.407143 24.2607 0.401421L24.2103 0.39614C20.3952 0.118858 14.6335 0.0810065 14.5758 0.0807865L14.5708 0.0805664L14.5657 0.0807865C14.508 0.0810065 8.74634 0.118858 4.89686 0.39614L4.846 0.401421C4.80505 0.406923 4.75992 0.411984 4.71082 0.417706C4.08509 0.489887 2.783 0.640192 1.61873 1.92031C0.662087 2.95946 0.385551 4.98031 0.357149 5.20742L0.353847 5.23691C0.34526 5.33352 0.141602 7.63342 0.141602 9.94234V12.1007C0.141602 14.4097 0.34526 16.7096 0.353847 16.8064L0.355388 16.8209C0.379827 17.0493 0.622896 19.0766 1.62269 20.1274C2.7143 21.3215 4.09456 21.4795 4.83698 21.5644C4.95433 21.5778 5.05539 21.5893 5.1243 21.6014L5.19101 21.6106C7.39383 21.8201 14.3004 21.9233 14.5932 21.9275L14.602 21.9277L14.6108 21.9275C14.6685 21.9273 20.43 21.8894 24.2451 21.6122L24.2955 21.6069C24.3437 21.6005 24.3979 21.5948 24.4573 21.5886C25.0795 21.5226 26.3746 21.3855 27.5228 20.1228C28.4794 19.0834 28.7562 17.0625 28.7844 16.8357L28.7877 16.8062C28.7962 16.7093 29.0001 14.4097 29.0001 12.1007V9.94234C28.9999 7.63342 28.7962 5.33374 28.7877 5.23691ZM27.3088 12.1007C27.3088 14.2378 27.1221 16.4387 27.1044 16.6407C27.0327 17.1972 26.7409 18.4758 26.2748 18.9822C25.5562 19.7724 24.818 19.8508 24.279 19.9078C24.2138 19.9146 24.1535 19.9212 24.0989 19.928C20.4088 20.1947 14.8647 20.2357 14.6093 20.2372C14.3228 20.233 7.51734 20.1289 5.38168 19.9306C5.27225 19.9128 5.15402 19.8992 5.02941 19.8851C4.39729 19.8127 3.53202 19.7137 2.86666 18.9822L2.85103 18.9654C2.39307 18.4886 2.10971 17.2929 2.03772 16.6473C2.02429 16.4946 1.83274 14.2677 1.83274 12.1007V9.94234C1.83274 7.80771 2.019 5.60926 2.03706 5.40306C2.1227 4.74748 2.41993 3.54637 2.86666 3.06091C3.60732 2.24667 4.38827 2.15644 4.90479 2.0968C4.95411 2.09108 5.00012 2.0858 5.04262 2.0803C8.78641 1.81226 14.3704 1.77243 14.5708 1.77089C14.7711 1.77221 20.3531 1.81226 24.0637 2.0803C24.1092 2.08602 24.159 2.09174 24.2125 2.0979C24.7438 2.15842 25.5467 2.24997 26.2836 3.0356L26.2905 3.04286C26.7484 3.51974 27.0318 4.73626 27.1038 5.39491C27.1166 5.53906 27.3088 7.77074 27.3088 9.94234V12.1007Z" fill="#BEBEBE"/>
</svg>
